<?xml version="1.0" encoding="UTF-8" standalone="no"?>
<svg
   version="1.1"
   viewBox="0 0 512 512"
   id="svg52"
   sodipodi:docname="_dae03c4d-57d9-4a79-9fc3-17bc37e743fa.svg"
   inkscape:export-filename="../../../Volumes/Source/piot/relay/docs/images/logo.svg"
   inkscape:export-xdpi="96"
   inkscape:export-ydpi="96"
   width="512"
   height="512"
   inkscape:version="1.3 (0e150ed, 2023-07-21)"
   xmlns:inkscape="http://www.inkscape.org/namespaces/inkscape"
   xmlns:sodipodi="http://sodipodi.sourceforge.net/DTD/sodipodi-0.dtd"
   xmlns="http://www.w3.org/2000/svg"
   xmlns:svg="http://www.w3.org/2000/svg">
  <defs
     id="defs52" />
  <sodipodi:namedview
     id="namedview52"
     pagecolor="#2c2c2c"
     bordercolor="#000000"
     borderopacity="0.25"
     inkscape:showpageshadow="2"
     inkscape:pageopacity="0.0"
     inkscape:pagecheckerboard="0"
     inkscape:deskcolor="#d1d1d1"
     inkscape:zoom="1.2650582"
     inkscape:cx="375.47679"
     inkscape:cy="394.84349"
     inkscape:window-width="2056"
     inkscape:window-height="1112"
     inkscape:window-x="293"
     inkscape:window-y="25"
     inkscape:window-maximized="0"
     inkscape:current-layer="svg52" />
  <path
     stroke="#878e93"
     vector-effect="non-scaling-stroke"
     d="m 176.04441,122.35498 a 6.83,6.83 0 0 0 -6.842,-6.8181 l -133.599801,0.2332 a 6.83,6.83 0 0 0 -6.818,6.8419 l 6e-4,0.38 a 6.83,6.83 0 0 0 6.842,6.8181 l 133.599801,-0.2332 a 6.83,6.83 0 0 0 6.818,-6.8419 l -6e-4,-0.38"
     id="path4"
     style="fill:none;stroke-width:2;stroke-linecap:butt" />
  <path
     stroke="#878e93"
     vector-effect="non-scaling-stroke"
     d="m 328.76481,188.29347 q 7.07,1.49 14.27,-2.08 15.77,-7.82 30.28,-14.61 c 3.25,-1.52 6.61,-3.45 7.07,-7.36 0.68,-5.74 -3.16,-8.75 -7.79,-10.99 q -20.47,-9.89999 -39.44,-19.65999 a 1.61,1.59 44.6 0 0 -1.47,0 q -18.8,9.66 -38.02,19.14999 c -4.94,2.44 -9.84,5.65 -8.46,12.02 q 0.9,4.19 5.4,6.19 11.57,5.13 25.26,11.92 9.5,4.7 12.9,5.42"
     id="path6"
     style="fill:none;stroke-width:2;stroke-linecap:butt" />
  <path
     stroke="#878e93"
     vector-effect="non-scaling-stroke"
     d="m 313.65481,205.93347 q -13.95,-6.87 -27.86,-13.42 -0.45,-0.21 -0.45,0.28 0.02,21.53 -0.01,41.85 c -0.01,5.32 -4.84,10.08 -10.29,7.27 q -16.24,-8.33 -32.8,-16.39 c -3.36,-1.64 -6.12,-4.07 -6.54,-8.05 -0.59,-5.74 -0.12,-11.96 -0.11,-17.91 q 0.02,-13.23 -0.03,-25.6 a 1.54,1.54 0 0 0 -0.67,-1.27 q -2.31,-1.58 -4.66,-2.71 -13.49,-6.5 -28.13,-13.42 -1.43,-0.68 -2.98,-0.63 -0.53,0.01 -0.64,0.54 -0.51,2.41 -0.51,4.88 -0.09,43.05 0.07,81.07 0.03,7.31 1.66,11.21 2.74,6.52 9.67,9.88 c 37.05,17.95 74.65,36.36 112.05,54.95 q 11.12,5.52 22.73,-0.37 44.68,-22.66 109.82,-54.56 c 5.77,-2.83 8.7,-5.47 11.11,-11.12 q 1.54,-3.61 1.59,-11.46 0.27,-42.24 -0.2,-81.67 -0.02,-1.75 -0.35,-2.46 a 2.23,2.21 64.5 0 0 -2.97,-1.07 q -16.17,7.76 -31.85,15.46 a 2.04,2.01 77.7 0 0 -1.13,1.79 q -0.24,18.09 -0.04,41.43 c 0.06,5.84 -3.49,8.93 -8.33,11.26 q -15.8,7.6 -30.82,15.74 -5.29,2.87 -8.49,-0.83 c -2.36,-2.73 -2.26,-6.96 -2.24,-10.36 q 0.1,-19.6 0.12,-37.55 0,-0.4 -0.79,-0.4 a 0.72,0.75 34.4 0 0 -0.29,0.06 c -13.57,5.73 -26.56,13.12 -39.79,18.97 q -6.61,2.92 -12.47,0.57 -6.86,-2.76 -13.38,-5.96"
     id="path9"
     style="fill:#00aad4;stroke:#305279;stroke-width:1;stroke-linecap:butt;stroke-dasharray:none;stroke-opacity:1" />
  <path
     stroke="#878e93"
     vector-effect="non-scaling-stroke"
     d="m 172.12481,181.37347 a 6.36,6.36 0 0 0 -6.36,-6.36 H 87.804809 a 6.36,6.36 0 0 0 -6.36,6.36 v 1 a 6.36,6.36 0 0 0 6.36,6.36 h 77.960001 a 6.36,6.36 0 0 0 6.36,-6.36 v -1"
     id="path10"
     style="fill:none;stroke-width:2;stroke-linecap:butt" />
  <path
     stroke="#878e93"
     vector-effect="non-scaling-stroke"
     d="m 86.344809,247.94347 c 26.860001,-0.03 53.140001,-0.27 79.520001,-0.07 q 5.03,0.04 4.99,-4.72 -0.05,-5.97 -5.16,-8.38 -1.95,-0.92 -7.39,-0.89 -38.25,0.27 -72.070001,0.09 c -4.21,-0.02 -8.58,3.16 -7.92,7.76 q 0.9,6.22 8.03,6.21"
     id="path15"
     style="fill:none;stroke-width:2;stroke-linecap:butt" />
  <path
     stroke="#878e93"
     vector-effect="non-scaling-stroke"
     d="m 186.25542,360.93605 c 5.15,-4.77 12.36,-2.41 16.73,2.08 q 8.93,9.18 21.1,14.08 c 15.13,6.1 31.05,8.95 47.91,11.63 16.46,2.6 33.02,4.4 49.67,4.29 12.47,-0.08 24.42,-0.55 36.51,-2.59 8.82,-1.49 18.83,-4.75 20.25,-14.65 1.78,-12.38 -12.46,-21.45 -22.58,-22.42 -8.91,-0.86 -18.98,0.09 -28.19,1.48 -12.18,1.83 -23.67,3.07 -35.85,3.14 q -8.89,0.04 -16.93,-1.59 c -13.97,-2.84 -29.05,-10.1 -41.45,-19.58 q -9.68,-7.41 -20.96,-16.18 -16.75,-13.03 -38.29,-21.34 -9.66,-3.72 -19.09,-5.36 -49.19001,-8.56 -88.950001,21.11 c -20.6,15.38 -34.89,34.75 -45.75,57.79 -2.2,4.67 -3.45,9.54 -5.26,14.34 q -2.07,5.48 -3.18,10.71 -3.2799996,15.49 -2.7599996,31.22 a 0.56,0.56 0 0 0 0.9399996,0.4 c 15.18,-13.59 32.33,-25.87 50.88,-32.92 q 17.73,-6.75 36.03,-8.01 24.030001,-1.65 47.980001,3.44 c 19.44,4.12 38.32,11.4 56.9,19.78 q 17.02,7.67 33.52,14.96 25.95,11.46 55.72,15.59 9.92,1.37 19.79,1.38 13.5,0.02 23.88,-1.27 25.17,-3.13 49.3,-16.09 c 10.65,-5.71 21.69,-13.41 31.65,-21.1 q 21.2,-16.36 41,-32.08 14.19,-11.27 22.99,-19.13 10.35,-9.27 15.04,-15.45 3.04,-4.01 4.6,-9.06 0.79,-2.58 -1.83,-1.94 -11.27,2.72 -21.12,9.01 -11.41,7.29 -22.85,15.85 -31.97,23.93 -59.17,46 c -12.84,10.42 -27.28,15.66 -43.36,17.82 q -18.42,2.48 -38.97,1.82 -30.68,-0.98 -62.16,-7.91 -14.14,-3.1 -28.09,-7.66 -8.67,-2.84 -15.67,-6.34 -10.87,-5.42 -19.17,-15.89 c -4.23,-5.33 -6.3,-14.23 -0.76,-19.36"
     id="path17"
     style="fill:none;stroke-width:2;stroke-linecap:butt" />
  <rect
     fill="#fdfdfd"
     x="28.570551"
     y="115.83205"
     transform="rotate(-0.1)"
     width="147.25999"
     height="14.04"
     rx="6.8299999"
     id="rect32" />
  <g
     id="g65"
     style="fill:#00aad4;fill-opacity:1;stroke:#505e1d;stroke-opacity:1"
     transform="translate(-236.29458,-244.42395)">
    <path
       stroke="#878e93"
       vector-effect="non-scaling-stroke"
       d="m 524.80939,319.01742 43.29,21.34 q 0.64,0.32 1.31,0.03 3.53,-1.56 7.23,-3.48 16.42,-8.52 32.12,-16.22 1.91,-0.93 3.99,-2.33 a 0.49,0.5 41.8 0 0 -0.04,-0.85 q -15.98,-8.43 -31.89,-16.23 c -7.42,-3.64 -11.42,-6.31 -18.36,-2.93 q -16.7,8.16 -33.14,16.51 -2.41,1.22 -4.63,2.89 a 0.75,0.75 0 0 0 0.12,1.27"
       id="path1"
       style="fill:#00aad4;fill-opacity:1;stroke:#505e1d;stroke-width:2;stroke-linecap:butt;stroke-opacity:1" />
    <path
       stroke="#878e93"
       vector-effect="non-scaling-stroke"
       d="m 441.07939,377.77742 c 10.48,5.22 20.77,10.22 31.36,14.86 a 0.5,0.51 16.3 0 0 0.7,-0.39 c 0.26,-1.78 1.39,-3.02 2.95,-3.84 q 6.73,-3.55 9.76,-5.04 22.06,-10.79 47.73,-23.87 1.23,-0.62 0.33,-1.67 -0.24,-0.28 -0.8,-0.57 -21.12,-10.96 -42.72,-21.53 a 1.52,1.52 0 0 0 -1.34,0 q -23.29,11.52 -46.63,23.04 c -5.09,2.51 -9.17,7.02 -7.38,13.07 0.91,3.11 3.31,4.58 6.04,5.94"
       id="path2"
       style="fill:#00aad4;fill-opacity:1;stroke:#505e1d;stroke-width:2;stroke-linecap:butt;stroke-opacity:1" />
    <path
       stroke="#878e93"
       vector-effect="non-scaling-stroke"
       d="m 662.07939,388.26742 c 1.29,0.64 2.35,1.73 2.54,3.2 q 0.21,1.57 1.63,0.88 13.52,-6.5 27.32,-13.07 c 4.37,-2.08 7.68,-3.36 8.68,-7.47 1.54,-6.38 -2.09,-10.85 -7.48,-13.44 q -21.4,-10.29 -46.37,-22.59 a 2.27,2.27 0 0 0 -1.98,0 q -21,10.35 -39.7,20.2 -1.6,0.84 -3.08,1.92 a 0.45,0.45 0 0 0 0,0.73 q 2.86,2.1 6.61,3.95 26.33,13 51.83,25.69"
       id="path3"
       style="fill:#00aad4;fill-opacity:1;stroke:#505e1d;stroke-width:2;stroke-linecap:butt;stroke-opacity:1" />
    <path
       fill="#fdfdfd"
       d="m 568.09939,340.35742 -43.29,-21.34 a 0.75,0.75 0 0 1 -0.12,-1.27 q 2.22,-1.67 4.63,-2.89 16.44,-8.35 33.14,-16.51 c 6.94,-3.38 10.94,-0.71 18.36,2.93 q 15.91,7.8 31.89,16.23 a 0.49,0.5 41.8 0 1 0.04,0.85 q -2.08,1.4 -3.99,2.33 -15.7,7.7 -32.12,16.22 -3.7,1.92 -7.23,3.48 -0.67,0.29 -1.31,-0.03 z"
       id="path30"
       style="fill:#00aad4;fill-opacity:1;stroke:#505e1d;stroke-width:2;stroke-dasharray:none;stroke-opacity:1" />
    <path
       fill="#fdfdfd"
       d="m 472.43939,392.63742 c -10.59,-4.64 -20.88,-9.64 -31.36,-14.86 -2.73,-1.36 -5.13,-2.83 -6.04,-5.94 -1.79,-6.05 2.29,-10.56 7.38,-13.07 q 23.34,-11.52 46.63,-23.04 a 1.52,1.52 0 0 1 1.34,0 q 21.6,10.57 42.72,21.53 0.56,0.29 0.8,0.57 0.9,1.05 -0.33,1.67 -25.67,13.08 -47.73,23.87 -3.03,1.49 -9.76,5.04 c -1.56,0.82 -2.69,2.06 -2.95,3.84 a 0.5,0.51 16.3 0 1 -0.7,0.39 z"
       id="path31"
       style="fill:#00aad4;fill-opacity:1;stroke:#505e1d;stroke-width:2;stroke-dasharray:none;stroke-opacity:1" />
    <path
       fill="#fdfdfd"
       d="m 664.61939,391.46742 c -0.19,-1.47 -1.25,-2.56 -2.54,-3.2 q -25.5,-12.69 -51.83,-25.69 -3.75,-1.85 -6.61,-3.95 a 0.45,0.45 0 0 1 0,-0.73 q 1.48,-1.08 3.08,-1.92 18.7,-9.85 39.7,-20.2 a 2.27,2.27 0 0 1 1.98,0 q 24.97,12.3 46.37,22.59 c 5.39,2.59 9.02,7.06 7.48,13.44 -1,4.11 -4.31,5.39 -8.68,7.47 q -13.8,6.57 -27.32,13.07 -1.42,0.69 -1.63,-0.88 z"
       id="path32"
       style="fill:#00aad4;fill-opacity:1;stroke:#505e1d;stroke-width:2;stroke-dasharray:none;stroke-opacity:1" />
    <path
       fill="#fdfdfd"
       d="m 552.15939,427.29742 q -13.69,-6.79 -25.26,-11.92 -4.5,-2 -5.4,-6.19 c -1.38,-6.37 3.52,-9.58 8.46,-12.02 q 19.22,-9.49 38.02,-19.15 a 1.61,1.59 44.6 0 1 1.47,0 q 18.97,9.76 39.44,19.66 c 4.63,2.24 8.47,5.25 7.79,10.99 -0.46,3.91 -3.82,5.84 -7.07,7.36 q -14.51,6.79 -30.28,14.61 -7.2,3.57 -14.27,2.08 -3.4,-0.72 -12.9,-5.42 z"
       id="path33"
       style="fill:#00aad4;fill-opacity:1;stroke:#505e1d;stroke-width:2;stroke-dasharray:none;stroke-opacity:1" />
  </g>
  <rect
     fill="#fdfdfd"
     x="81.444801"
     y="175.0135"
     width="90.68"
     height="13.72"
     rx="6.3600001"
     id="rect36" />
  <path
     fill="#fdfdfd"
     d="m 165.86481,247.87347 c -26.38,-0.2 -52.66,0.04 -79.520001,0.07 q -7.13,0.01 -8.03,-6.21 c -0.66,-4.6 3.71,-7.78 7.92,-7.76 q 33.820001,0.18 72.070001,-0.09 5.44,-0.03 7.39,0.89 5.11,2.41 5.16,8.38 0.04,4.76 -4.99,4.72 z"
     id="path40" />
  <path
     fill="#fdfdfd"
     d="m 202.98542,363.01605 c -4.37,-4.49 -11.58,-6.85 -16.73,-2.08 -5.54,5.13 -3.47,14.03 0.76,19.36 q 8.3,10.47 19.17,15.89 7,3.5 15.67,6.34 13.95,4.56 28.09,7.66 31.48,6.93 62.16,7.91 20.55,0.66 38.97,-1.82 c 16.08,-2.16 30.52,-7.4 43.36,-17.82 q 27.2,-22.07 59.17,-46 11.44,-8.56 22.85,-15.85 9.85,-6.29 21.12,-9.01 2.62,-0.64 1.83,1.94 -1.56,5.05 -4.6,9.06 -4.69,6.18 -15.04,15.45 -8.8,7.86 -22.99,19.13 -19.8,15.72 -41,32.08 c -9.96,7.69 -21,15.39 -31.65,21.1 q -24.13,12.96 -49.3,16.09 -10.38,1.29 -23.88,1.27 -9.87,-0.01 -19.79,-1.38 -29.77,-4.13 -55.72,-15.59 -16.5,-7.29 -33.52,-14.96 c -18.58,-8.38 -37.46,-15.66 -56.9,-19.78 q -23.95,-5.09 -47.980001,-3.44 -18.3,1.26 -36.03,8.01 c -18.55,7.05 -35.7,19.33 -50.88,32.92 a 0.56,0.56 0 0 1 -0.9399996,-0.4 q -0.52,-15.73 2.7599996,-31.22 1.11,-5.23 3.18,-10.71 c 1.81,-4.8 3.06,-9.67 5.26,-14.34 10.86,-23.04 25.15,-42.41 45.75,-57.79 q 39.759991,-29.67 88.950001,-21.11 9.43,1.64 19.09,5.36 21.54,8.31 38.29,21.34 11.28,8.77 20.96,16.18 c 12.4,9.48 27.48,16.74 41.45,19.58 q 8.04,1.63 16.93,1.59 c 12.18,-0.07 23.67,-1.31 35.85,-3.14 9.21,-1.39 19.28,-2.34 28.19,-1.48 10.12,0.97 24.36,10.04 22.58,22.42 -1.42,9.9 -11.43,13.16 -20.25,14.65 -12.09,2.04 -24.04,2.51 -36.51,2.59 -16.65,0.11 -33.21,-1.69 -49.67,-4.29 -16.86,-2.68 -32.78,-5.53 -47.91,-11.63 q -12.17,-4.9 -21.1,-14.08 z"
     id="path42"
     style="fill:#2ad4ff;fill-opacity:1;stroke:#3b857b;stroke-width:4;stroke-dasharray:none;stroke-opacity:0.475113" />
</svg>
